<?xml version="1.0" encoding="utf-8"?>
<!-- Generator: Adobe Illustrator 25.2.3, SVG Export Plug-In . SVG Version: 6.00 Build 0)  -->
<svg version="1.1" id="Capa_1" xmlns="http://www.w3.org/2000/svg" xmlns:xlink="http://www.w3.org/1999/xlink" x="0px" y="0px"
	 viewBox="0 0 512 512" style="enable-background:new 0 0 512 512;" xml:space="preserve">
<style type="text/css">
	.st0{fill:#505050;}
	.st1{fill:#FFFFFF;}
</style>
<g>
	<path class="st0" d="M186.6,374.1c-10-5.9-19.2-13-27.4-21.3c-53.4-53.4-53.4-140.3,0-193.7c53.4-53.4,140.3-53.4,193.7,0
		c11.2,11.2,20.3,24.1,27,38.4c4.7,10,16.6,14.3,26.6,9.5c10-4.7,14.3-16.6,9.5-26.6c-8.7-18.4-20.4-35.1-34.9-49.6
		c-69-69-181.3-69-250.3,0s-69,181.3,0,250.3c10.6,10.6,22.6,19.9,35.4,27.5c9.5,5.6,21.8,2.4,27.4-7.1
		C199.3,392,196.1,379.8,186.6,374.1z"/>
	<circle class="st0" cx="319.6" cy="28.3" r="20"/>
	<path class="st0" d="M37,165.7c9.8,5.1,21.9,1.2,26.9-8.6c10.2-19.8,23.4-37.9,39.4-53.8c36.9-36.9,85.8-59.2,137.8-62.8
		c11-0.8,19.3-10.3,18.6-21.3c-0.8-11-10.3-19.3-21.3-18.6C176.7,4.8,118.7,31.3,75,75c-18.8,18.8-34.5,40.3-46.6,63.8
		c-4.1,7.9-2.4,17.3,3.6,23.3C33.4,163.5,35.1,164.7,37,165.7z"/>
	<circle class="st0" cx="412.3" cy="268" r="20"/>
	<path class="st0" d="M296,402.6c0.8,13.5,14.6,22.3,27.1,17.2c21.5-8.8,41.2-21.8,58-38.7c8-8,15.3-16.8,21.6-26.2
		c6.2-9.2,3.8-21.6-5.4-27.8c-9.2-6.2-21.6-3.8-27.8,5.4c-4.9,7.2-10.5,14.1-16.8,20.3c-12.9,12.9-28.1,23-44.5,29.8
		c-7.9,3.2-12.9,11-12.4,19.5L296,402.6z"/>
	<path class="st0" d="M403.8,46.9c-9-6.4-21.5-4.3-27.9,4.8c-6.4,9-4.3,21.5,4.8,27.9c9.9,7,19.4,15,28.1,23.7
		c84.2,84.2,84.2,221.3,0,305.5c-28.4,28.4-63.3,47.9-101.3,57.1c-8.9,2.2-15.2,10.3-15.2,19.5v0c0,13,12.2,22.4,24.9,19.4
		c45-11,86.3-34.1,119.9-67.7c48.4-48.4,75-112.6,75-181c0-68.4-26.6-132.7-75-181C426.7,64.7,415.5,55.2,403.8,46.9z"/>
	<path class="st0" d="M182,459c-29.7-10.8-56.2-27.7-78.7-50.2c-29.8-29.8-50.1-67.2-58.7-108.3c-2.3-10.8-12.9-17.7-23.7-15.5
		c-10.8,2.3-17.7,12.9-15.5,23.7C15.6,357.3,39.7,401.7,75,437c26.7,26.7,58.1,46.7,93.3,59.5c10.4,3.8,21.9-1.6,25.6-12
		C197.7,474.2,192.3,462.8,182,459z"/>
	<circle class="st0" cx="22.7" cy="224.9" r="20"/>
	<path class="st1" d="M236,440.8v13.4v4.1c0,0,0,0,0,0h0l0,29.3c0,10.9,8.5,20.1,19.3,20.5c11.4,0.4,20.7-8.7,20.7-20v-29.9l0,0
		v-64.6v-41.4c0,0,0,0,0,0c18.3-3.9,35.2-12.9,48.6-26.3c37.8-37.8,37.8-99.4,0-137.2s-99.4-37.8-137.2,0
		c-28.9,28.9-36.6,73.1-19.1,110c1,2.1,2.4,4,3.9,5.6c5.8,5.8,14.8,7.6,22.7,3.9c10-4.7,14.3-16.6,9.5-26.6
		c-10.2-21.7-5.7-47.7,11.3-64.6c22.2-22.2,58.4-22.2,80.6,0c22.2,22.2,22.2,58.4,0,80.6c-5.8,5.8-12.7,10.2-20.2,13c0,0,0,0-0.1,0
		v-19.3l0,0l0-33.5c0-10.9-8.5-20.1-19.3-20.5c-11.4-0.4-20.7,8.7-20.7,20v178.5c0,0,0,0,0,0L236,440.8z"/>
</g>
</svg>
